<svg width="37" height="33" viewBox="0 0 37 33" fill="none" xmlns="http://www.w3.org/2000/svg">
<path d="M23.1418 33L29.0618 8.48193L30.1382 14.1807C27.9855 14.1807 26.2364 13.5181 24.8909 12.1928C23.5455 10.9558 22.8727 9.27711 22.8727 7.15663C22.8727 5.03614 23.5455 3.31325 24.8909 1.98795C26.2364 0.662651 27.8958 0 29.8691 0C32.0218 0 33.7709 0.662651 35.1164 1.98795C36.3721 3.40161 37 5.1245 37 7.15663C37 7.95181 36.9552 8.65864 36.8655 9.27711C36.7758 9.89558 36.5964 10.6466 36.3273 11.5301C36.0582 12.4137 35.6994 13.4739 35.2509 14.7108L29.6 33H23.1418ZM0.269089 33L6.18909 8.48193L7.26545 14.1807C5.11272 14.1807 3.36363 13.5181 2.01818 12.1928C0.672722 10.9558 0 9.27711 0 7.15663C0 5.03614 0.672722 3.31325 2.01818 1.98795C3.36363 0.662651 5.02303 0 6.99636 0C9.14909 0 10.8982 0.662651 12.2436 1.98795C13.4994 3.40161 14.1273 5.1245 14.1273 7.15663C14.1273 7.95181 14.0824 8.65864 13.9927 9.27711C13.903 9.89558 13.7236 10.6466 13.4545 11.5301C13.1855 12.4137 12.8267 13.4739 12.3782 14.7108L6.72727 33H0.269089Z" fill="black"/>
</svg>
