<svg width="37" height="33" viewBox="0 0 37 33" fill="none" xmlns="http://www.w3.org/2000/svg">
<path d="M13.8582 0L7.93818 24.5181L6.86182 18.8193C9.01455 18.8193 10.7636 19.4819 12.1091 20.8072C13.4545 22.0442 14.1273 23.7229 14.1273 25.8434C14.1273 27.9639 13.4545 29.6867 12.1091 31.012C10.7636 32.3373 9.10424 33 7.13091 33C4.97818 33 3.22909 32.3373 1.88364 31.012C0.627878 29.5984 0 27.8755 0 25.8434C0 25.0482 0.0448481 24.3414 0.134545 23.7229C0.224242 23.1044 0.403637 22.3534 0.672727 21.4699C0.941818 20.5863 1.30061 19.5261 1.74909 18.2892L7.4 0H13.8582ZM36.7309 0L30.8109 24.5181L29.7346 18.8193C31.8873 18.8193 33.6364 19.4819 34.9818 20.8072C36.3273 22.0442 37 23.7229 37 25.8434C37 27.9639 36.3273 29.6867 34.9818 31.012C33.6364 32.3373 31.977 33 30.0036 33C27.8509 33 26.1018 32.3373 24.7564 31.012C23.5006 29.5984 22.8727 27.8755 22.8727 25.8434C22.8727 25.0482 22.9176 24.3414 23.0073 23.7229C23.097 23.1044 23.2764 22.3534 23.5455 21.4699C23.8145 20.5863 24.1733 19.5261 24.6218 18.2892L30.2727 0H36.7309Z" fill="black"/>
</svg>
