<svg width="1022" height="230" viewBox="0 0 1022 230" fill="none" xmlns="http://www.w3.org/2000/svg">
<path d="M87.8926 31.9717H90.4658C98.0472 32.6911 101.727 33.5488 101.506 34.5449C102.668 35.5964 104.577 36.6478 107.233 37.6992C108.119 39.5254 110.415 41.8773 114.123 44.7549C115.174 46.6917 115.507 48.6009 115.119 50.4824C114.787 51.9766 114.4 54.3285 113.957 57.5381L110.554 67.167C109.447 69.2699 108.063 70.3213 106.403 70.3213H104.162C103.941 70.3213 103.055 71.4004 101.506 73.5586H101.257C100.648 73.5586 100.371 72.8115 100.427 71.3174H100.095C99.3753 71.3174 98.1579 73.4479 96.4424 77.709C95.3356 78.7604 94.6992 79.2861 94.5332 79.2861H94.2012V77.709C94.4779 76.6022 94.9482 74.9974 95.6123 72.8945L94.3672 72.5625C94.5332 71.7324 95.2526 70.8747 96.5254 69.9893C96.8021 65.9495 96.387 63.9297 95.2803 63.9297C95.3356 63.5423 94.5609 60.9967 92.9561 56.293C93.2881 54.9095 92.9837 53.9411 92.043 53.3877C86.0111 53.8304 81.6117 54.6882 78.8447 55.9609C73.3662 58.7832 69.7415 61.2181 67.9707 63.2656C65.2591 66.918 63.765 69.4912 63.4883 70.9854L63.4053 71.3174C63.516 72.8115 63.5436 73.6416 63.4883 73.8076C62.6029 76.0765 62.0771 77.5706 61.9111 78.29C62.7412 78.29 62.8519 79.6735 62.2432 82.4404C63.848 84.488 64.7334 86.9505 64.8994 89.8281C66.4489 90.7689 67.196 91.4053 67.1406 91.7373L67.0576 92.0693L66.2275 94.3105C67.5557 96.026 69.7969 98.0459 72.9512 100.37C80.5326 114.205 84.1849 121.869 83.9082 123.363C85.4577 130.115 85.5684 136.617 84.2402 142.87C82.8568 149.345 79.5365 153.827 74.2793 156.317C73.1725 157.147 70.9313 160.136 67.5557 165.282C62.9072 169.931 57.8991 172.255 52.5312 172.255C50.4284 173.583 48.5745 174.247 46.9697 174.247C45.1989 174.026 43.7324 173.915 42.5703 173.915H39.665L33.1904 175.492H32.8584C31.6963 174.219 30.4512 173.583 29.123 173.583L24.3916 174.496C17.1976 173.943 13.8773 172.366 14.4307 169.765C14.5967 168.879 12.6045 167.689 8.4541 166.195H7.45801C7.0153 166.195 6.57259 166.306 6.12988 166.527C3.80566 165.476 1.86882 163.041 0.319336 159.223L0.983398 156.981L1.14941 156.317C1.20475 156.041 1.09408 154.132 0.817383 150.59L0.983398 149.594H2.31152C2.20085 150.424 2.4222 150.839 2.97559 150.839L3.72266 150.59C4.44206 147.27 4.77409 142.151 4.71875 135.233C5.05078 134.791 5.24447 134.459 5.2998 134.237H5.88086C6.15755 134.237 6.46191 135.842 6.79395 139.052H7.12598V137.475L7.70703 134.901H8.28809C9.28418 138.72 9.94824 140.629 10.2803 140.629L10.3633 140.297C10.6953 134.763 10.9997 131.36 11.2764 130.087C12.3831 124.885 15.5651 117.525 20.8223 108.007H21.8184L22.3164 108.339C22.1504 109.224 19.9922 114.454 15.8418 124.027C15.3991 124.968 14.9564 126.573 14.5137 128.842C13.7943 132.162 14.901 137.475 17.834 144.779C18.2214 145.277 19.8262 146.246 22.6484 147.685C23.2018 149.4 24.1149 150.258 25.3877 150.258H26.9648L26.6328 151.835L26.1348 152.499C28.127 153.993 30.3405 154.74 32.7754 154.74H33.1074L33.1904 154.408C31.9176 154.187 31.0322 153.329 30.5342 151.835V151.503C30.7002 151.06 30.9769 150.839 31.3643 150.839C33.9652 152.167 35.5423 152.831 36.0957 152.831C37.3685 153.218 39.665 153.523 42.9854 153.744L43.7324 153.412C43.9538 153.412 44.0368 153.523 43.9814 153.744C50.3454 153.744 54.1914 152.693 55.5195 150.59C57.7331 149.262 59.1719 147.021 59.8359 143.866L60.417 141.293C60.583 140.297 60.7767 137.945 60.998 134.237C61.7174 132.632 62.2985 131.775 62.7412 131.664C62.5752 128.454 59.8083 123.446 54.4404 116.64C53.7764 116.64 53.4443 116.557 53.4443 116.391C52.5036 116.391 51.2308 117.885 49.626 120.873H49.2939C48.8512 119.545 48.4639 118.881 48.1318 118.881H47.7998C47.1357 120.32 46.112 123.004 44.7285 126.933H43.4834C43.262 125.992 43.5387 122.672 44.3135 116.972C42.3766 115.146 41.5189 113.651 41.7402 112.489L43.9814 110.912C44.2028 109.971 43.013 108.062 40.4121 105.185C39.748 97.4925 38.5306 93.6465 36.7598 93.6465C36.0404 92.097 35.819 90.6029 36.0957 89.1641C36.4831 89.1641 36.7321 88.9704 36.8428 88.583V88.251C36.7874 86.6462 36.1787 84.6263 35.0166 82.1914C34.8506 78.7604 34.9336 76.2979 35.2656 74.8037C37.9219 66.2816 39.9141 62.0205 41.2422 62.0205C41.9062 61.4118 42.7917 59.6133 43.8984 56.625C45.1159 55.1862 45.946 53.4707 46.3887 51.4785L46.8037 49.2373C52.7249 43.2607 56.903 40.2725 59.3379 40.2725C59.8359 40.2725 62.1878 39.221 66.3936 37.1182C67.5003 37.1182 68.0537 37.2012 68.0537 37.3672L67.8047 38.3633C67.4727 38.3633 67.0853 38.6953 66.6426 39.3594C66.5872 39.7467 66.7533 39.9404 67.1406 39.9404H68.1367C75.8288 34.6279 82.4141 31.9717 87.8926 31.9717ZM73.6152 57.8701L72.7852 58.7832H73.1172L73.9473 57.8701H73.6152ZM104.328 75.4678C105.933 76.0765 106.597 77.0173 106.32 78.29C105.712 79.2861 105.186 79.8395 104.743 79.9502H102.502V78.29L102.834 76.7129C102.889 76.4915 103.387 76.0765 104.328 75.4678ZM95.0312 82.7725H95.6953C95.972 82.7725 96.221 83.1045 96.4424 83.7686C96.387 84.1006 95.889 84.5156 94.9482 85.0137H94.6162C94.2842 85.0137 94.0075 84.7093 93.7861 84.1006L93.8691 83.7686C93.9245 83.4365 94.3118 83.1045 95.0312 82.7725ZM41.6572 105.185L41.5742 105.517H42.2383L42.3213 105.185H41.6572ZM53.6934 121.454C55.4642 121.454 56.1559 122.644 55.7686 125.023C54.8831 125.632 54.0807 125.937 53.3613 125.937H52.7803C52.1715 125.937 51.9225 124.968 52.0332 123.031C52.0885 122.755 52.6419 122.229 53.6934 121.454ZM45.8076 129.755C46.5824 130.087 46.9421 130.419 46.8867 130.751L46.5547 131.996H44.3135L44.7285 130.087C44.9499 130.087 45.3096 129.976 45.8076 129.755ZM7.95605 138.056L7.79004 138.72H8.12207L8.28809 138.056H7.95605ZM7.20898 141.625L6.95996 142.538C7.29199 148.072 8.42643 150.839 10.3633 150.839L10.4463 150.59C8.56478 147.989 7.59635 145.001 7.54102 141.625H7.20898ZM208.579 28.5684H209.16L209.077 28.9004C208.745 30.5605 206.144 35.8177 201.275 44.6719C201.109 45.5573 200.445 47.6602 199.282 50.9805C199.559 50.9805 199.836 51.6169 200.113 52.8896C198.674 55.7673 197.622 58.3958 196.958 60.7754H197.207L197.954 60.4434C198.286 60.6647 198.535 60.7754 198.701 60.7754L198.452 61.6885C193.085 71.262 190.152 77.1556 189.654 79.3691C189.93 79.3691 190.235 79.7842 190.567 80.6143L190.401 81.2783C187.689 86.5355 186.029 90.6305 185.42 93.5635C185.309 95.8877 185.199 97.3542 185.088 97.9629C183.871 101.062 183.096 102.86 182.764 103.358C182.487 105.517 182.238 107.204 182.017 108.422L181.602 110.331C181.38 111.327 179.305 113.43 175.376 116.64C174.325 121.399 169.759 132.024 161.68 148.515C159.577 152.001 156.312 156.096 151.885 160.8C149.782 162.405 147.015 165.891 143.584 171.259C139.489 175.243 132.821 178.176 123.579 180.058H120.259C106.756 180.058 98.0682 175.215 94.1945 165.531C90.4315 158.061 88.8267 150.479 89.3801 142.787C90.0995 139.301 90.7912 136.562 91.4553 134.569C91.7873 131.968 91.9533 130.613 91.9533 130.502C93.6688 123.529 95.08 117.442 96.1867 112.24C97.9022 104.216 103.27 94.9469 112.29 84.4326C114.393 81.389 116.717 77.0726 119.263 71.4834C119.374 70.0446 119.512 68.8825 119.678 67.9971L119.927 67.084C121.31 64.3171 122.14 62.3249 122.417 61.1074C123.081 60.8861 123.524 60.2497 123.745 59.1982L124.492 55.7119C125.046 53.1663 126.512 51.4785 128.892 50.6484C130.718 48.8223 132.987 47.4665 135.698 46.5811C138.299 43.8141 140.624 42.4307 142.671 42.4307C143.28 43.0947 144.359 43.6204 145.908 44.0078C146.683 42.901 147.652 42.071 148.814 41.5176C149.367 41.7389 149.533 42.3753 149.312 43.4268L149.146 44.3398H150.059C153.656 39.9128 156.035 37.6992 157.197 37.6992L157.114 38.0312C156.727 39.8574 154.873 43.3438 151.553 48.4902C150.723 50.7591 150.225 52.2256 150.059 52.8896C149.837 54.0518 149.754 55.2969 149.81 56.625C149.367 58.2298 146.489 62.4355 141.177 69.2422C140.679 69.7956 139.821 72.4518 138.604 77.2109C137.276 77.2109 135.09 80.3652 132.046 86.6738C131.382 89.7174 126.872 99.4847 118.516 115.976C118.405 116.64 117.381 118.327 115.445 121.039C113.84 124.636 112.152 129.7 110.381 136.229C110.215 136.894 110.298 140.767 110.63 147.851L110.547 149.428C110.436 149.815 110.049 150.673 109.385 152.001L110.962 151.669C111.682 152.499 112.097 152.914 112.207 152.914C113.48 151.863 114.504 151.337 115.279 151.337H115.611C115.998 151.392 116.136 151.614 116.026 152.001C116.026 152.167 115.749 152.997 115.196 154.491C114.697 156.815 116.856 157.978 121.67 157.978H122.002C123.109 157.369 124.271 155.681 125.488 152.914C127.647 149.594 130.165 147.27 133.042 145.941C136.086 141.902 137.691 139.494 137.857 138.72L138.604 135.233C140.098 131.028 141.647 128.925 143.252 128.925C144.193 128.925 145.576 125.771 147.403 119.462C148.454 117.857 149.754 114.481 151.304 109.335C153.13 107.453 155.288 103.469 157.779 97.3818C158.553 96.4411 160.296 94.8639 163.008 92.6504C165 88.9427 166.328 85.5671 166.992 82.5234L167.241 81.2783C167.352 80.7803 167.269 79.8395 166.992 78.4561C170.534 72.9222 173.135 68.6058 174.795 65.5068C178.281 63.736 180.689 61.3011 182.017 58.2021C182.404 56.4867 183.705 54.7158 185.918 52.8896C186.306 51.1188 187.274 49.9567 188.823 49.4033C190.484 49.4033 193.832 44.9762 198.867 36.1221H199.78L199.697 37.6992C199.199 39.1934 198.203 41.5176 196.709 44.6719L196.626 45.0039H196.958C198.84 42.403 201.219 38.806 204.097 34.2129C204.872 34.2129 205.895 32.6357 207.168 29.4814L208.579 28.5684ZM157.529 30.8096H159.024V32.3867L158.858 32.9678L157.197 33.2998H156.616V31.7227L156.699 31.3906C156.921 31.0033 157.197 30.8096 157.529 30.8096ZM146.655 33.2998C148.703 33.2998 149.561 34.1299 149.229 35.79C148.841 37.5055 147.735 38.3633 145.908 38.3633H145.327C145.051 36.7585 145.023 35.4857 145.244 34.5449C145.466 33.9362 145.936 33.5212 146.655 33.2998ZM145.327 62.3525L145.161 62.9336H145.493L145.659 62.3525H145.327ZM118.433 113.817C118.322 114.26 118.128 114.675 117.852 115.062H118.516L118.765 113.817H118.433ZM328.436 0.84375H329.432C329.875 0.899089 330.068 1.12044 330.013 1.50781L329.681 2.83594C329.57 3.27865 329.294 3.5 328.851 3.5H327.191V2.17188C327.689 1.28646 328.104 0.84375 328.436 0.84375ZM316.4 4.49609H316.732C318.945 4.49609 319.858 5.38151 319.471 7.15234C318.641 8.92318 317.562 9.80859 316.234 9.80859H315.238C314.74 8.0931 314.546 6.98633 314.657 6.48828C315.708 5.60286 316.289 4.9388 316.4 4.49609ZM321.629 8.14844H322.957L322.874 9.80859L322.791 10.4727L321.048 10.8047H320.384C320.495 10.3066 320.467 9.86393 320.301 9.47656C320.855 8.59115 321.297 8.14844 321.629 8.14844ZM328.519 8.48047C328.408 8.92318 328.464 9.14453 328.685 9.14453C325.143 16.3385 323.262 20.5443 323.04 21.7617L322.376 26.4102C319.72 31.5013 318.254 34.7109 317.977 36.0391C317.036 40.5215 315.487 43.7311 313.329 45.668L312.332 46.9961C311.89 50.2057 311.641 51.9766 311.585 52.3086C311.143 54.2454 306.162 63.5423 296.644 80.1992C296.312 81.7487 293.379 86.1758 287.845 93.4805C287.679 94.2552 286.213 95.9154 283.446 98.4609C280.955 102.999 278.604 108.422 276.39 114.73L276.141 118.715C269.722 130.336 265.405 138.747 263.192 143.949C263.081 144.447 260.812 147.325 256.385 152.582C251.903 164.203 249.025 170.401 247.752 171.176H247.42C247.697 168.962 247.946 167.302 248.167 166.195L248.416 164.867C247.531 165.033 247.061 165.255 247.005 165.531C245.732 171.452 240.946 180.86 232.645 193.754C231.317 196.632 230.238 198.07 229.408 198.07H229.076L229.242 197.406C229.906 194.141 233.281 186.615 239.369 174.828L241.029 166.859C243.298 160.385 244.626 156.29 245.013 154.574C245.068 154.242 245.041 152.25 244.93 148.598C250.685 135.98 254.033 127.458 254.974 123.031L255.057 122.699H254.725L253.646 124.691H252.318L252.401 124.359C252.843 122.312 254.919 117.774 258.626 110.746H258.294C253.203 115.284 248.693 118.826 244.764 121.371C244.543 122.201 241.278 125.521 234.969 131.332C233.641 133.103 232.23 133.988 230.736 133.988H230.072C230.238 133.324 229.989 132.992 229.325 132.992L228.993 134.32C229.048 142.455 228.688 148.432 227.913 152.25L227.166 152.582H226.834C226.447 152.527 226.17 149.649 226.004 143.949C225.562 143.008 225.202 140.574 224.925 136.645L224.261 136.312C222.988 139.411 221.66 140.961 220.277 140.961L220.111 140.297L220.443 138.969C222.048 135.482 222.905 133.49 223.016 132.992L222.435 132.66C221.716 133.324 219.17 136.977 214.798 143.617C213.359 144.724 212.336 145.277 211.727 145.277L211.561 144.613L211.893 142.953C213.774 140.906 216.043 136.589 218.7 130.004C220.028 128.952 220.858 127.624 221.19 126.02L221.273 125.688C221.384 125.189 221.052 123.64 220.277 121.039H219.945C219.502 121.039 219.198 121.371 219.032 122.035H218.368C217.371 122.035 216.956 117.276 217.122 107.758H216.79C216.071 111.023 213.304 116.667 208.49 124.691C205.059 126.241 202.956 128.897 202.181 132.66C201.96 132.66 201.683 133.435 201.351 134.984L200.853 137.309C201.074 139.301 201.157 140.408 201.102 140.629C199.442 144.281 197.035 148.376 193.88 152.914C190.837 153.744 189.066 155.294 188.568 157.562C186.465 161.547 184.722 163.539 183.338 163.539L183.421 163.207C183.477 161.215 183.117 160.219 182.342 160.219C180.793 162.875 177.223 168.188 171.634 176.156C170.361 178.812 169.421 180.141 168.812 180.141H168.148L168.397 179.145C170.168 174.662 173.045 168.907 177.03 161.879L177.113 159.887L177.196 159.555C178.468 156.677 179.133 155.128 179.188 154.906L179.354 153.91C178.524 152.582 178.192 151.586 178.358 150.922L181.18 145.609L181.595 143.617L182.757 139.633L181.595 140.297H180.599L180.682 139.965C181.125 137.807 183.726 132.383 188.485 123.695C190.477 118.438 191.805 115.229 192.469 114.066C191.639 112.794 191.307 111.798 191.473 111.078C195.955 101.394 198.999 94.3105 200.604 89.8281C201.821 86.2865 202.458 84.4049 202.513 84.1836C202.07 83.0215 201.96 81.9147 202.181 80.8633L202.264 80.5312C202.707 78.5391 203.897 75.5508 205.833 71.5664C206.165 69.1315 206.497 67.0286 206.829 65.2578L207.245 63.2656C207.521 61.9928 208.96 60.4434 211.561 58.6172C216.652 53.4154 220.055 49.431 221.771 46.6641H221.439C220 46.6641 219.336 45.668 219.447 43.6758L219.613 42.6797C219.723 42.237 220.609 41.7943 222.269 41.3516C223.818 41.3516 224.51 42.6797 224.344 45.3359C226.281 45.7786 227.36 46 227.581 46C229.629 42.6797 231.621 40.5768 233.558 39.6914L234.554 41.0195C235.938 37.4779 236.768 35.707 237.044 35.707C237.21 35.2643 237.487 35.043 237.874 35.043H238.871L238.788 37.0352C237.791 40.6322 237.238 42.6243 237.127 43.0117C236.297 46.9408 236.353 54.0241 237.293 64.2617C236.851 66.3092 236.187 68.4121 235.301 70.5703C234.858 72.5072 235.467 75.8275 237.127 80.5312L236.712 82.5234C235.938 82.5234 235.246 83.1875 234.637 84.5156C236.906 90.6029 237.598 95.694 236.712 99.7891L236.463 100.785C236.297 101.615 235.578 102.943 234.305 104.77C235.467 103.995 238.483 100.232 243.353 93.4805C247.337 89.0534 253.729 83.4089 262.528 76.5469C262.86 75.1634 267.481 71.179 276.39 64.5938C281.592 57.4551 285.051 53.6921 286.766 53.3047C287.153 52.6406 287.458 52.3086 287.679 52.3086C287.347 51.5892 287.236 51.0358 287.347 50.6484C288.565 47.9922 289.256 46.332 289.422 45.668C289.92 43.0671 290.584 40.4108 291.414 37.6992C291.47 36.2604 291.663 34.8216 291.996 33.3828C292.66 32.3867 293.213 31.8333 293.656 31.7227V30.0625L293.822 29.3984C294.596 25.8014 296.644 23.4772 299.964 22.4258C304.723 19.8249 307.324 17.5007 307.767 15.4531C308.874 14.125 310.23 13.4609 311.834 13.4609H312.166C313.439 14.7891 314.933 15.5638 316.649 15.7852C317.866 14.0143 319.167 13.1289 320.55 13.1289L320.384 15.4531C322.432 15.4531 324.286 13.4609 325.946 9.47656C326.72 8.8125 327.578 8.48047 328.519 8.48047ZM236.38 28.0703H237.708C238.096 28.1257 238.262 28.347 238.206 28.7344L237.874 30.3945L236.131 30.7266H235.799C235.855 30.3945 235.716 29.9518 235.384 29.3984L235.55 28.7344C235.716 28.2917 235.993 28.0703 236.38 28.0703ZM230.902 33.3828H232.23V35.043L232.147 35.375C232.036 35.8177 231.76 36.0391 231.317 36.0391H229.657C229.767 35.541 229.767 35.0983 229.657 34.7109C230.155 33.8255 230.57 33.3828 230.902 33.3828ZM227.332 34.3789C228.163 34.3789 228.716 34.9323 228.993 36.0391C228.495 38.474 227.471 39.6914 225.921 39.6914H225.257C225.036 39.6914 224.538 38.9167 223.763 37.3672L224.012 36.0391C224.178 35.375 225.285 34.8216 227.332 34.3789ZM251.82 86.5078H252.152L253.812 84.8477L253.895 84.5156C253.563 84.5156 252.871 85.1797 251.82 86.5078ZM254.891 120.375L254.808 121.039H255.14L255.223 120.375H254.891ZM182.01 138.305L181.927 138.969H182.259L182.342 138.305H182.01ZM222.601 144.281H223.265C225.036 144.281 225.645 145.609 225.091 148.266C224.538 149.151 223.652 149.594 222.435 149.594H220.775C220.443 148.21 220.304 147.325 220.36 146.938C221.799 145.499 222.546 144.613 222.601 144.281ZM210.15 149.926H212.474V151.254C211.976 152.139 211.561 152.582 211.229 152.582H209.569V150.922C209.901 150.479 210.094 150.147 210.15 149.926ZM184.334 161.879L184.168 162.543H184.5L184.666 161.879H184.334ZM434.347 0.84375H435.343C435.786 0.899089 435.98 1.12044 435.924 1.50781L435.592 2.83594C435.482 3.27865 435.205 3.5 434.762 3.5H433.102V2.17188C433.6 1.28646 434.015 0.84375 434.347 0.84375ZM422.311 4.49609H422.643C424.857 4.49609 425.77 5.38151 425.382 7.15234C424.552 8.92318 423.473 9.80859 422.145 9.80859H421.149C420.651 8.0931 420.457 6.98633 420.568 6.48828C421.619 5.60286 422.2 4.9388 422.311 4.49609ZM427.541 8.14844H428.869L428.786 9.80859L428.703 10.4727L426.96 10.8047H426.296C426.406 10.3066 426.379 9.86393 426.212 9.47656C426.766 8.59115 427.209 8.14844 427.541 8.14844ZM434.43 8.48047C434.32 8.92318 434.375 9.14453 434.596 9.14453C431.055 16.3385 429.173 20.5443 428.952 21.7617L428.288 26.4102C425.631 31.5013 424.165 34.7109 423.888 36.0391C422.948 40.5215 421.398 43.7311 419.24 45.668L418.244 46.9961C417.801 50.2057 417.552 51.9766 417.497 52.3086C417.054 54.2454 412.073 63.5423 402.555 80.1992C402.223 81.7487 399.29 86.1758 393.756 93.4805C393.59 94.2552 392.124 95.9154 389.357 98.4609C386.867 102.999 384.515 108.422 382.301 114.73L382.052 118.715C375.633 130.336 371.317 138.747 369.103 143.949C368.992 144.447 366.724 147.325 362.296 152.582C357.814 164.203 354.936 170.401 353.664 171.176H353.332C353.608 168.962 353.857 167.302 354.079 166.195L354.328 164.867C353.442 165.033 352.972 165.255 352.917 165.531C351.644 171.452 346.857 180.86 338.556 193.754C337.228 196.632 336.149 198.07 335.319 198.07H334.987L335.153 197.406C335.817 194.141 339.193 186.615 345.28 174.828L346.94 166.859C349.209 160.385 350.537 156.29 350.924 154.574C350.98 154.242 350.952 152.25 350.841 148.598C356.597 135.98 359.945 127.458 360.885 123.031L360.968 122.699H360.636L359.557 124.691H358.229L358.312 124.359C358.755 122.312 360.83 117.774 364.538 110.746H364.206C359.115 115.284 354.604 118.826 350.675 121.371C350.454 122.201 347.189 125.521 340.88 131.332C339.552 133.103 338.141 133.988 336.647 133.988H335.983C336.149 133.324 335.9 132.992 335.236 132.992L334.904 134.32C334.959 142.455 334.6 148.432 333.825 152.25L333.078 152.582H332.746C332.358 152.527 332.082 149.649 331.916 143.949C331.473 143.008 331.113 140.574 330.837 136.645L330.172 136.312C328.9 139.411 327.572 140.961 326.188 140.961L326.022 140.297L326.354 138.969C327.959 135.482 328.817 133.49 328.927 132.992L328.346 132.66C327.627 133.324 325.081 136.977 320.71 143.617C319.271 144.724 318.247 145.277 317.638 145.277L317.472 144.613L317.804 142.953C319.686 140.906 321.955 136.589 324.611 130.004C325.939 128.952 326.769 127.624 327.101 126.02L327.184 125.688C327.295 125.189 326.963 123.64 326.188 121.039H325.856C325.413 121.039 325.109 121.371 324.943 122.035H324.279C323.283 122.035 322.868 117.276 323.034 107.758H322.702C321.982 111.023 319.215 116.667 314.401 124.691C310.97 126.241 308.867 128.897 308.092 132.66C307.871 132.66 307.594 133.435 307.262 134.984L306.764 137.309C306.986 139.301 307.069 140.408 307.013 140.629C305.353 144.281 302.946 148.376 299.792 152.914C296.748 153.744 294.977 155.294 294.479 157.562C292.376 161.547 290.633 163.539 289.25 163.539L289.333 163.207C289.388 161.215 289.028 160.219 288.254 160.219C286.704 162.875 283.135 168.188 277.546 176.156C276.273 178.812 275.332 180.141 274.723 180.141H274.059L274.308 179.145C276.079 174.662 278.957 168.907 282.941 161.879L283.024 159.887L283.107 159.555C284.38 156.677 285.044 155.128 285.099 154.906L285.265 153.91C284.435 152.582 284.103 151.586 284.269 150.922L287.091 145.609L287.506 143.617L288.669 139.633L287.506 140.297H286.51L286.593 139.965C287.036 137.807 289.637 132.383 294.396 123.695C296.388 118.438 297.716 115.229 298.38 114.066C297.55 112.794 297.218 111.798 297.384 111.078C301.867 101.394 304.91 94.3105 306.515 89.8281C307.733 86.2865 308.369 84.4049 308.424 84.1836C307.982 83.0215 307.871 81.9147 308.092 80.8633L308.175 80.5312C308.618 78.5391 309.808 75.5508 311.745 71.5664C312.077 69.1315 312.409 67.0286 312.741 65.2578L313.156 63.2656C313.433 61.9928 314.871 60.4434 317.472 58.6172C322.563 53.4154 325.967 49.431 327.682 46.6641H327.35C325.911 46.6641 325.247 45.668 325.358 43.6758L325.524 42.6797C325.635 42.237 326.52 41.7943 328.18 41.3516C329.73 41.3516 330.421 42.6797 330.255 45.3359C332.192 45.7786 333.271 46 333.493 46C335.54 42.6797 337.532 40.5768 339.469 39.6914L340.465 41.0195C341.849 37.4779 342.679 35.707 342.956 35.707C343.122 35.2643 343.398 35.043 343.786 35.043H344.782L344.699 37.0352C343.703 40.6322 343.149 42.6243 343.039 43.0117C342.209 46.9408 342.264 54.0241 343.205 64.2617C342.762 66.3092 342.098 68.4121 341.212 70.5703C340.77 72.5072 341.379 75.8275 343.039 80.5312L342.624 82.5234C341.849 82.5234 341.157 83.1875 340.548 84.5156C342.817 90.6029 343.509 95.694 342.624 99.7891L342.375 100.785C342.209 101.615 341.489 102.943 340.216 104.77C341.379 103.995 344.394 100.232 349.264 93.4805C353.249 89.0534 359.64 83.4089 368.439 76.5469C368.771 75.1634 373.392 71.179 382.301 64.5938C387.503 57.4551 390.962 53.6921 392.677 53.3047C393.065 52.6406 393.369 52.3086 393.59 52.3086C393.258 51.5892 393.148 51.0358 393.258 50.6484C394.476 47.9922 395.168 46.332 395.334 45.668C395.832 43.0671 396.496 40.4108 397.326 37.6992C397.381 36.2604 397.575 34.8216 397.907 33.3828C398.571 32.3867 399.124 31.8333 399.567 31.7227V30.0625L399.733 29.3984C400.508 25.8014 402.555 23.4772 405.876 22.4258C410.635 19.8249 413.236 17.5007 413.678 15.4531C414.785 14.125 416.141 13.4609 417.746 13.4609H418.078C419.351 14.7891 420.845 15.5638 422.56 15.7852C423.778 14.0143 425.078 13.1289 426.462 13.1289L426.296 15.4531C428.343 15.4531 430.197 13.4609 431.857 9.47656C432.632 8.8125 433.49 8.48047 434.43 8.48047ZM342.292 28.0703H343.62C344.007 28.1257 344.173 28.347 344.118 28.7344L343.786 30.3945L342.043 30.7266H341.711C341.766 30.3945 341.628 29.9518 341.296 29.3984L341.462 28.7344C341.628 28.2917 341.904 28.0703 342.292 28.0703ZM336.813 33.3828H338.141V35.043L338.058 35.375C337.948 35.8177 337.671 36.0391 337.228 36.0391H335.568C335.679 35.541 335.679 35.0983 335.568 34.7109C336.066 33.8255 336.481 33.3828 336.813 33.3828ZM333.244 34.3789C334.074 34.3789 334.627 34.9323 334.904 36.0391C334.406 38.474 333.382 39.6914 331.833 39.6914H331.169C330.947 39.6914 330.449 38.9167 329.674 37.3672L329.923 36.0391C330.089 35.375 331.196 34.8216 333.244 34.3789ZM357.731 86.5078H358.063L359.723 84.8477L359.806 84.5156C359.474 84.5156 358.782 85.1797 357.731 86.5078ZM360.802 120.375L360.719 121.039H361.051L361.134 120.375H360.802ZM287.921 138.305L287.838 138.969H288.171L288.254 138.305H287.921ZM328.512 144.281H329.176C330.947 144.281 331.556 145.609 331.003 148.266C330.449 149.151 329.564 149.594 328.346 149.594H326.686C326.354 148.21 326.216 147.325 326.271 146.938C327.71 145.499 328.457 144.613 328.512 144.281ZM316.061 149.926H318.385V151.254C317.887 152.139 317.472 152.582 317.14 152.582H315.48V150.922C315.812 150.479 316.006 150.147 316.061 149.926ZM290.246 161.879L290.08 162.543H290.412L290.578 161.879H290.246ZM464.805 26.4932H467.129V27.8213C466.741 28.7067 465.884 29.1494 464.555 29.1494L464.223 27.4893C464.555 27.0465 464.749 26.7145 464.805 26.4932ZM443.056 30.1455C444.772 30.1455 447.013 31.0309 449.78 32.8018C452.547 33.0231 454.207 33.1338 454.761 33.1338L462.978 31.8057H463.974C463.753 32.8018 464.251 33.5765 465.469 34.1299C467.959 33.0231 472.275 32.4697 478.418 32.4697H480.078C483.398 32.4697 485.529 33.4658 486.47 35.458C487.244 35.9007 487.964 36.1221 488.628 36.1221C492.557 36.1221 495.434 35.126 497.261 33.1338C497.703 33.1338 497.925 33.0231 497.925 32.8018C504.178 32.8018 508.024 34.0192 509.463 36.4541C509.407 36.8415 511.981 37.2842 517.182 37.7822L517.348 38.4463L517.265 38.7783C517.155 39.3317 516.159 39.8851 514.277 40.4385L514.194 40.7705C514.083 41.2686 517.431 42.154 524.238 43.4268C525.954 44.2568 528.942 44.8102 533.203 45.0869L533.618 46.083C531.902 46.7471 529.966 47.0791 527.807 47.0791L517.016 46.083C512.036 46.083 508.854 47.0791 507.471 49.0713C507.415 49.2926 507.277 49.4033 507.055 49.4033H502.407C499.363 50.2887 497.731 50.7314 497.51 50.7314L497.427 52.3916L497.344 52.7236C497.178 52.7236 496.292 52.8343 494.687 53.0557C485.169 52.8343 479.303 52.7236 477.09 52.7236C475.485 53.111 474.572 53.7751 474.35 54.7158H473.354C471.473 54.7158 468.512 54.6051 464.472 54.3838L463.642 56.708C463.974 58.2575 464.113 59.1429 464.057 59.3643C460.626 68.4398 457.749 73.7523 455.425 75.3018C452.215 78.7327 450.195 82.4958 449.365 86.5908L447.373 92.8994C448.922 95.3343 451.745 96.5518 455.84 96.5518C457.887 96.5518 459.741 95.6663 461.401 93.8955H462.397C463.781 93.8955 465.469 94.2275 467.461 94.8916L469.536 94.5596H470.532C471.805 97.2158 474.848 98.5439 479.663 98.5439L479.829 99.208L479.663 100.204C478.722 100.204 477.947 100.757 477.339 101.864C483.26 103.414 489.541 104.521 496.181 105.185L496.347 105.849C496.237 106.457 495.047 106.9 492.778 107.177C490.786 107.177 486.553 106.845 480.078 106.181C479.359 106.181 478.39 106.513 477.173 107.177H474.184C473.244 107.177 471.971 107.951 470.366 109.501H467.046C465.994 109.501 464.057 109.833 461.235 110.497L461.152 110.829L461.567 111.825L461.484 112.157C461.429 112.6 461.18 112.821 460.737 112.821C452.436 112.6 447.345 112.489 445.464 112.489C444.744 114.039 442.918 114.813 439.985 114.813C439.93 115.09 437.495 116.197 432.68 118.134L426.621 127.763C425.127 129.257 423.328 130.474 421.225 131.415C419.178 134.846 417.96 137.392 417.573 139.052L417.407 140.048L418.984 140.38H420.644C423.965 138.388 427.728 137.392 431.933 137.392C433.428 138.664 434.147 139.439 434.092 139.716C445.768 137.06 452.132 135.731 453.183 135.731H453.847C456.227 135.731 458.081 135.842 459.409 136.063C461.069 135.842 463.089 135.731 465.469 135.731H467.129C468.18 135.731 470.283 136.728 473.437 138.72H474.433C479.746 138.72 484.007 137.502 487.217 135.067H487.881C497.122 135.067 502.103 136.063 502.822 138.056C502.656 138.941 506.059 139.605 513.032 140.048L513.198 140.712L513.115 141.044L510.127 142.704L509.629 143.368L510.21 143.7C512.977 143.7 518.677 144.586 527.309 146.356C530.408 146.356 531.875 146.688 531.709 147.353L531.626 147.685C531.515 148.349 530.021 148.681 527.143 148.681H518.179C516.408 148.681 514.111 148.57 511.289 148.349C510.459 148.791 509.739 149.013 509.131 149.013H506.142C504.316 149.013 502.711 149.787 501.328 151.337C500.498 151.78 499.778 152.001 499.17 152.001C496.458 151.78 495.047 151.669 494.936 151.669C491.616 152.333 489.402 152.886 488.296 153.329C488.572 154.049 488.655 154.713 488.545 155.321L485.39 155.985C483.952 155.985 482.098 155.875 479.829 155.653C465.496 156.428 458.275 157.092 458.164 157.646C457.943 158.531 457.61 158.974 457.168 158.974L433.926 160.634C427.562 161.464 424.269 162.349 424.048 163.29C423.605 163.622 421.336 163.954 417.241 164.286C416.577 164.95 415.719 165.282 414.668 165.282H414.336C413.561 165.282 412.593 165.172 411.43 164.95C406.284 167.385 401.608 168.603 397.402 168.603C397.679 167.274 397.042 166.61 395.493 166.61C395.161 168.104 391.619 172.753 384.868 180.556C382.986 183.876 381.741 185.536 381.133 185.536H380.469L380.552 185.204C381.16 182.271 384.038 177.069 389.184 169.599C390.457 166.721 391.204 164.84 391.426 163.954C383.9 161.851 380.303 159.97 380.635 158.31L381.216 155.653L381.88 153.993C378.338 153.108 376.65 152.222 376.816 151.337C379.085 150.119 380.247 149.345 380.303 149.013L380.386 148.681C378.67 148.072 375.599 147.408 371.172 146.688L370.674 145.692L370.84 145.028C372.943 144.586 374.907 144.254 376.733 144.032C377.84 144.254 378.476 144.364 378.642 144.364C383.291 144.364 389.821 142.815 398.232 139.716C398.343 139.052 400.28 135.621 404.043 129.423C405.039 126.988 407.363 122.782 411.015 116.806L411.098 116.474C411.209 116.086 411.098 115.09 410.766 113.485C410.877 113.043 411.43 111.936 412.427 110.165C411.486 110.165 410.739 107.951 410.185 103.524H408.525C408.193 103.524 407.944 103.192 407.778 102.528L407.944 101.532C408.83 101.532 409.438 100.868 409.77 99.54C407.446 99.0973 404.928 98.876 402.217 98.876H401.553C401.11 98.876 400.944 98.6546 401.055 98.2119L401.138 97.8799C401.304 97.1051 403.738 96.5518 408.442 96.2197C413.367 94.8363 415.885 93.9508 415.996 93.5635C415.166 93.3421 414.861 92.6781 415.083 91.5713L417.49 91.2393C419.372 91.682 420.755 91.9033 421.64 91.9033C423.411 91.9033 425.265 87.3656 427.202 78.29C430.19 73.4756 431.906 70.0446 432.348 67.9971L433.345 63.3486C433.732 61.5778 435.254 59.6963 437.91 57.7041C434.534 55.4352 432.376 53.5537 431.435 52.0596C431.435 51.7275 429.582 50.5101 425.874 48.4072C425.431 47.5771 425.265 46.8024 425.376 46.083L425.791 44.4229L426.621 42.0986C425.293 42.0986 424.241 41.3239 423.467 39.7744L423.55 39.1104C425.431 38.723 426.427 38.2803 426.538 37.7822C425.708 36.8968 422.913 36.0114 418.154 35.126L418.071 33.7979C419.012 33.3551 419.953 33.1338 420.893 33.1338H430.522C438.048 31.1416 442.226 30.1455 443.056 30.1455ZM411.513 35.126H412.842C413.45 35.3473 413.616 36.0114 413.34 37.1182V37.4502L411.513 38.1143C410.683 37.8929 410.379 37.2288 410.6 36.1221C411.043 36.1221 411.347 35.79 411.513 35.126ZM417.407 43.0947C419.842 43.0947 420.866 43.9801 420.478 45.751C419.15 47.3005 417.767 48.0752 416.328 48.0752C415.332 47.7432 414.944 46.9684 415.166 45.751L415.498 44.4229C415.553 44.0908 416.19 43.6481 417.407 43.0947ZM457.749 70.3213L457.666 70.9854C458.109 70.9854 458.358 70.764 458.413 70.3213H457.749ZM408.276 92.2354H409.936L410.268 93.8955C409.881 94.7809 409.134 95.2236 408.027 95.2236L407.28 93.8955L407.363 93.5635C407.916 93.0101 408.221 92.5674 408.276 92.2354ZM395.742 99.8721C396.517 100.204 396.876 100.536 396.821 100.868L396.489 102.528C395.659 102.75 395.189 102.86 395.078 102.86C394.248 102.528 393.888 102.196 393.999 101.864L394.165 100.868C394.276 100.315 394.801 99.9827 395.742 99.8721ZM403.628 106.513C405.177 106.513 405.814 107.177 405.537 108.505L405.371 109.169C404.541 110.497 403.517 111.161 402.3 111.161H400.971C400.584 111.161 400.28 110.497 400.058 109.169C400.833 107.398 402.023 106.513 403.628 106.513ZM363.784 147.021H365.112C365.721 147.242 365.915 147.906 365.693 149.013L365.527 149.677L363.784 150.009H363.452C363.12 150.009 362.899 149.566 362.788 148.681C363.341 147.961 363.673 147.408 363.784 147.021ZM370.342 155.321H371.338C373.551 155.321 374.52 155.985 374.243 157.313C372.804 159.527 371.338 160.634 369.844 160.634C368.681 160.634 368.128 159.638 368.183 157.646C368.792 156.317 369.512 155.543 370.342 155.321ZM565.154 26.9912H566.15C569.36 26.9912 572.653 27.2126 576.028 27.6553L576.692 27.3232C585.823 28.43 592.076 29.3154 595.452 29.9795C604.362 32.4144 610.643 35.624 614.295 39.6084C617.837 40.5492 619.524 41.4346 619.358 42.2646C623.232 49.182 624.477 55.8226 623.094 62.1865L622.762 63.8467C621.046 71.9814 614.765 80.7249 603.919 90.0771C601.152 92.346 596.31 95.8877 589.393 100.702C584.965 105.572 580.649 108.671 576.443 109.999C571.02 114.205 567.589 116.308 566.15 116.308C565.265 116.308 561.613 118.3 555.193 122.284H554.861L554.778 122.948C562.968 124.774 571.906 130.087 581.59 138.886C582.697 140.933 583.195 142.151 583.084 142.538C582.586 145.084 586.1 147.851 593.626 150.839C596.061 150.839 597.749 151.724 598.689 153.495C603.172 158.531 605.302 161.519 605.081 162.46C604.528 165.061 606.022 167.496 609.563 169.765C610.947 171.48 611.5 173.03 611.224 174.413H610.892C610.67 174.413 609.425 173.97 607.156 173.085L607.073 173.749C609.729 177.069 612.607 182.271 615.706 189.354C617.2 190.627 617.809 191.845 617.532 193.007L617.449 193.339H616.453C614.074 191.07 610.477 186.754 605.662 180.39C602.84 176.627 599.243 174.745 594.871 174.745C590.278 170.097 587.234 167.772 585.74 167.772L585.574 168.437C585.519 168.658 585.602 168.769 585.823 168.769C585.491 169.433 585.215 169.765 584.993 169.765C583.388 169.101 581.701 167.662 579.93 165.448C571.684 158.033 566.04 153.827 562.996 152.831L560.506 153.495C559.399 153.495 554.944 150.507 547.142 144.53C544.375 143.202 540.141 140.767 534.441 137.226C531.84 137.226 529.516 136.229 527.469 134.237H527.137C526.805 134.237 525.615 136.672 523.567 141.542C521.575 143.147 519.057 147.242 516.014 153.827L506.8 164.12C504.697 167.938 503.286 171.48 502.566 174.745L502.815 178.065L502.732 178.729C502.566 179.394 500.547 183.157 496.673 190.019C496.064 192.896 493.934 195.663 490.281 198.319L484.056 210.272H483.06C483.115 208.059 483.198 206.62 483.309 205.956H482.645C478.273 214.146 474.178 220.455 470.359 224.882C469.972 226.653 468.838 228.313 466.956 229.862H466.292C467.122 225.989 470.442 219.237 476.253 209.608C477.415 206.067 478.383 202.525 479.158 198.983L479.241 198.651C479.352 198.153 479.075 196.825 478.411 194.667C480.127 191.789 481.953 186.809 483.89 179.726H483.558C483.226 179.726 482.838 180.058 482.396 180.722C482.008 180.5 481.704 180.39 481.482 180.39L481.648 179.394L488.538 164.12L499.246 143.534C498.859 141.763 498.61 140.878 498.499 140.878C502.428 132.632 505.97 126.324 509.124 121.952C509.235 121.454 509.456 121.011 509.788 120.624C506.91 119.296 505.333 117.857 505.057 116.308L505.389 114.647C506.053 114.647 506.717 114.094 507.381 112.987C507.713 111.549 506.412 109.888 503.479 108.007C502.981 108.007 502.622 107.564 502.4 106.679L502.649 105.683H504.974L505.057 105.351C505.001 103.469 504.005 101.809 502.068 100.37C501.017 100.204 500.657 99.3187 500.989 97.7139H501.321C502.262 97.7139 503.729 98.1566 505.721 99.042L508.709 97.3818C507.547 94.5042 507.049 92.7334 507.215 92.0693C507.326 91.6266 507.575 91.4053 507.962 91.4053C509.401 92.0693 510.452 92.4014 511.116 92.4014L511.199 92.0693C511.365 91.2946 510.369 89.1917 508.211 85.7607C507.934 85.0413 507.851 84.3773 507.962 83.7686L508.045 83.4365C508.156 82.9938 508.405 82.7725 508.792 82.7725L515.682 89.7451C518.781 92.6227 521.022 94.0615 522.405 94.0615V93.7295C522.848 91.7373 524.314 89.0811 526.805 85.7607L527.22 83.7686C528.603 77.3493 531.176 73.0329 534.939 70.8193C535.659 70.2106 537.015 68.5505 539.007 65.8389C540.501 65.8389 542.687 63.404 545.564 58.5342L551.541 53.5537C553.976 54.2178 555.47 54.5498 556.023 54.5498C557.85 51.0081 559.427 49.2373 560.755 49.2373L561.004 49.9014L560.091 53.8857C561.308 53.8857 562.996 51.7829 565.154 47.5771C558.071 47.1344 553.921 46.8024 552.703 46.5811C550.545 46.8024 548.414 46.9131 546.312 46.9131H545.315C539.45 44.9209 536.24 43.9248 535.687 43.9248H534.358L520.081 45.585C519.638 45.585 519.445 45.3636 519.5 44.9209C519.611 44.5889 521.354 43.7035 524.729 42.2646L524.896 41.6006C524.176 41.6006 523.65 41.4899 523.318 41.2686C520.883 42.154 516.124 43.1501 509.041 44.2568C500.242 48.0199 494.321 49.9014 491.277 49.9014L491.028 49.2373C491.194 48.6286 497.475 45.6403 509.871 40.2725C517.951 37.5609 524.425 35.79 529.295 34.96C531.176 34.96 534.524 33.7425 539.339 31.3076C539.782 31.0863 540.363 30.9756 541.082 30.9756H541.746C546.505 30.9756 553.257 30.4222 562 29.3154L562.083 28.9834C561.198 28.9834 560.755 28.5407 560.755 27.6553C561.806 27.2126 563.273 26.9912 565.154 26.9912ZM563.992 27.9873L563.909 28.3193C564.131 28.3193 564.435 28.43 564.822 28.6514L564.905 28.3193L564.324 27.9873H563.992ZM521.99 44.2568L521.907 44.5889H522.903L522.986 44.2568H521.99ZM559.925 68.8271C559.814 69.3805 559.288 72.3688 558.348 77.792C556.521 82.9385 553.34 88.0296 548.802 93.0654C547.64 94.5042 546.588 96.3857 545.647 98.71C546.644 98.1012 550.102 97.4372 556.023 96.7178C563.051 93.9508 569.166 90.6305 574.368 86.7568C578.795 81.887 582.752 79.4521 586.238 79.4521C588.23 79.4521 591.357 77.2386 595.618 72.8115C598.274 69.6019 599.962 66.3923 600.682 63.1826L600.765 62.8506C601.816 57.8148 599.077 53.9411 592.547 51.2295C589.337 47.4665 585.657 45.585 581.507 45.585H572.874C569.332 45.585 567.036 48.0199 565.984 52.8896C564.767 55.6012 562.747 60.9137 559.925 68.8271ZM502.151 79.7842H504.144V81.4443C503.756 82.1084 503.009 82.4404 501.902 82.4404C501.46 82.4404 501.321 82.1084 501.487 81.4443L502.151 79.7842ZM553.533 85.0967C553.478 85.318 553.284 85.6501 552.952 86.0928H553.284L553.782 85.4287L553.865 85.0967H553.533ZM498.914 90.4092H501.238C502.29 91.5713 502.705 92.6781 502.483 93.7295L502.4 94.3936C500.851 94.8363 499.799 95.0576 499.246 95.0576H497.586C497.254 93.4528 497.143 92.4567 497.254 92.0693C498.195 91.6266 498.748 91.0732 498.914 90.4092ZM494.349 96.0537H495.677C496.009 96.0537 496.285 96.3857 496.507 97.0498L496.175 98.71L494.432 99.042C494.542 98.5993 494.266 98.3779 493.602 98.3779L493.685 97.7139L494.349 96.0537ZM547.225 99.042L547.142 99.374H548.138C548.968 98.9313 549.687 98.71 550.296 98.71L550.379 98.3779H549.715C548.94 98.8206 548.11 99.042 547.225 99.042ZM495.511 106.347C497.337 107.121 498.112 108.228 497.835 109.667L497.752 109.999C497.641 110.552 496.645 110.995 494.764 111.327H493.436C493.104 111.327 492.771 110.884 492.439 109.999L492.771 108.339C493.934 107.011 494.847 106.347 495.511 106.347ZM609.646 172.421L609.48 173.085H610.145L610.311 172.421H609.646ZM738.046 27.7383H740.869C749.225 28.513 753.292 29.4538 753.071 30.5605C754.343 31.7227 756.446 32.8848 759.379 34.0469C760.32 36.0391 762.838 38.6123 766.933 41.7666C768.095 43.9248 768.455 46.0277 768.012 48.0752C767.68 49.7354 767.265 52.3363 766.767 55.8779L763.032 66.4199C761.814 68.7441 760.292 69.9062 758.466 69.9062H755.976C755.755 69.9062 754.786 71.096 753.071 73.4756H752.822C752.158 73.4756 751.826 72.6455 751.826 70.9854H751.494C750.719 70.9854 749.391 73.3372 747.509 78.041C746.292 79.2031 745.6 79.7842 745.434 79.7842H745.102V78.041C745.323 76.8236 745.821 75.0527 746.596 72.7285L745.185 72.3965C745.351 71.4557 746.153 70.515 747.592 69.5742C747.869 65.0918 747.398 62.8506 746.181 62.8506C746.292 62.4632 745.462 59.6686 743.691 54.4668C744.023 52.9727 743.663 51.9212 742.612 51.3125C736.026 51.7552 731.212 52.696 728.168 54.1348C722.136 57.2337 718.152 59.9176 716.215 62.1865C713.227 66.1709 711.567 68.9932 711.235 70.6533L711.152 70.9854C711.262 72.6455 711.318 73.5586 711.318 73.7246C710.266 76.2148 709.658 77.875 709.492 78.7051C710.432 78.7051 710.571 80.2269 709.907 83.2705C711.677 85.484 712.646 88.1956 712.812 91.4053C714.472 92.4014 715.274 93.0931 715.219 93.4805L715.136 93.8125L714.223 96.3027C715.717 98.1842 718.207 100.398 721.694 102.943C729.995 118.161 733.979 126.601 733.647 128.261C735.362 135.676 735.501 142.815 734.062 149.677C732.512 156.815 728.86 161.768 723.105 164.535C721.887 165.421 719.425 168.686 715.717 174.33C710.626 179.477 705.12 182.05 699.199 182.05C696.874 183.489 694.827 184.208 693.056 184.208C691.119 183.987 689.514 183.876 688.242 183.876H685.004L677.949 185.619H677.534C676.261 184.18 674.905 183.461 673.466 183.461L668.237 184.54C660.323 183.931 656.671 182.188 657.28 179.311C657.446 178.314 655.26 177.014 650.722 175.409H649.56C649.117 175.409 648.647 175.52 648.149 175.741C645.603 174.579 643.473 171.895 641.757 167.689L642.504 165.199L642.67 164.535C642.726 164.203 642.587 162.1 642.255 158.227L642.504 157.147H643.998C643.832 158.033 644.054 158.476 644.662 158.476L645.493 158.227C646.267 154.574 646.627 148.93 646.572 141.293C646.959 140.795 647.18 140.435 647.236 140.214H647.817C648.149 140.214 648.509 141.985 648.896 145.526H649.311V143.783L649.892 140.961H650.556C651.663 145.167 652.382 147.27 652.714 147.27L652.797 146.854C653.185 140.767 653.544 137.032 653.876 135.648C655.094 129.949 658.58 121.841 664.335 111.327H665.414L665.912 111.742C665.746 112.683 663.367 118.438 658.774 129.008C658.331 130.004 657.861 131.775 657.363 134.32C656.588 137.973 657.805 143.811 661.015 151.835C661.458 152.388 663.229 153.44 666.328 154.989C666.936 156.871 667.932 157.812 669.316 157.812H671.059L670.644 159.555L670.146 160.302C672.359 161.962 674.794 162.792 677.451 162.792H677.866L677.949 162.377C676.51 162.156 675.514 161.215 674.96 159.555L675.043 159.223C675.209 158.725 675.514 158.476 675.956 158.476C678.779 159.914 680.494 160.634 681.103 160.634C682.486 161.076 685.004 161.436 688.657 161.713L689.487 161.298C689.708 161.298 689.791 161.436 689.736 161.713C696.764 161.713 700.997 160.551 702.436 158.227C704.871 156.732 706.476 154.27 707.25 150.839L707.831 148.017C708.053 146.91 708.274 144.309 708.495 140.214C709.27 138.443 709.907 137.502 710.405 137.392C710.183 133.85 707.14 128.344 701.274 120.873C700.554 120.873 700.195 120.79 700.195 120.624C699.199 120.624 697.787 122.257 695.961 125.521H695.629C695.131 124.083 694.716 123.363 694.384 123.363H693.969C693.194 124.913 692.088 127.846 690.649 132.162H689.238C689.016 131.166 689.321 127.514 690.151 121.205C687.993 119.213 687.052 117.58 687.328 116.308L689.819 114.564C690.04 113.513 688.712 111.41 685.834 108.256C685.115 99.7891 683.759 95.5557 681.767 95.5557C680.992 93.8402 680.771 92.2077 681.103 90.6582C681.546 90.6582 681.822 90.4368 681.933 89.9941V89.6621C681.822 87.8913 681.158 85.6501 679.941 82.9385C679.775 79.1755 679.858 76.4639 680.19 74.8037C683.067 65.4515 685.253 60.7754 686.747 60.7754C687.467 60.1113 688.463 58.1468 689.736 54.8818C691.064 53.277 691.949 51.3678 692.392 49.1543L692.89 46.7471C699.42 40.1618 704.013 36.8691 706.669 36.8691C707.223 36.8691 709.824 35.707 714.472 33.3828C715.689 33.3828 716.271 33.4658 716.215 33.6318L715.966 34.7939C715.634 34.7939 715.191 35.1536 714.638 35.873C714.638 36.2604 714.859 36.4541 715.302 36.4541H716.381C724.793 30.6436 732.014 27.7383 738.046 27.7383ZM722.441 56.21L721.445 57.2061H721.86L722.773 56.21H722.441ZM756.142 75.5508C757.913 76.2148 758.66 77.2663 758.383 78.7051C757.719 79.7565 757.11 80.3652 756.557 80.5312H754.15V78.7051L754.482 76.9619C754.537 76.6852 755.091 76.2148 756.142 75.5508ZM746.015 83.6025H746.679C747.011 83.6025 747.288 83.9622 747.509 84.6816C747.398 85.069 746.845 85.5394 745.849 86.0928H745.434C745.102 86.0928 744.825 85.7607 744.604 85.0967L744.687 84.6816C744.742 84.3496 745.185 83.9899 746.015 83.6025ZM687.245 108.256L687.162 108.588H687.91L687.993 108.256H687.245ZM700.527 126.186C702.464 126.186 703.211 127.486 702.768 130.087C701.772 130.751 700.886 131.083 700.112 131.083H699.448C698.784 131.083 698.535 130.032 698.701 127.929C698.756 127.597 699.365 127.016 700.527 126.186ZM691.811 135.316C692.641 135.648 693.028 136.008 692.973 136.396L692.641 137.724H690.151L690.649 135.648C690.87 135.648 691.258 135.538 691.811 135.316ZM650.141 144.447L649.975 145.111H650.39L650.473 144.447H650.141ZM649.311 148.349L649.062 149.345C649.449 155.432 650.694 158.476 652.797 158.476L652.88 158.227C650.833 155.349 649.754 152.056 649.643 148.349H649.311ZM831.506 2.75293H832.088L832.171 4.24707L832.088 4.49609C831.977 4.9388 831.7 5.16016 831.257 5.16016H829.763L829.846 3.66602L830.012 3.08496L831.506 2.75293ZM820.383 7.48438C822.376 7.48438 823.316 7.78874 823.206 8.39746C823.095 8.95085 823.123 9.22754 823.289 9.22754C822.569 11.2197 821.767 12.2158 820.881 12.2158C819.719 11.7731 818.972 10.9984 818.64 9.8916C819.36 8.28678 819.941 7.48438 820.383 7.48438ZM831.922 9.22754L831.755 9.8916L828.186 21.4297C827.301 30.2839 827.356 34.7109 828.352 34.7109C828.463 37.0352 828.048 41.2686 827.107 47.4111C824.285 54.2731 822.542 59.2259 821.878 62.2695C820.771 66.4753 820.134 68.9378 819.968 69.6572C820.522 73.5863 820.632 76.3532 820.3 77.958L819.802 80.2822C819.526 81.555 818.281 83.2428 816.067 85.3457L815.901 86.1758C815.569 87.6699 815.209 91.6266 814.822 98.0459C814.822 98.9313 813.992 103.773 812.332 112.572C811.059 116.778 810.284 119.545 810.007 120.873C809.952 121.205 810.672 121.98 812.166 123.197V124.691L816.565 125.854C817.34 126.407 820.107 126.85 824.866 127.182L833.333 128.178C835.214 129.285 828.214 130.281 812.332 131.166L817.727 132.079L822.708 132.826C810.201 134.486 803.81 136.008 803.533 137.392L802.703 140.961C801.762 145.499 801.873 149.151 803.035 151.918C803.201 152.25 803.228 152.748 803.118 153.412L802.62 155.736C802.343 156.898 801.651 159.167 800.545 162.543C799.991 166.029 799.604 168.215 799.382 169.101C799.327 169.599 798.331 171.065 796.394 173.5C795.896 176.82 795.453 179.394 795.066 181.22L794.236 185.37C794.125 185.757 793.876 185.951 793.489 185.951H793.157C792.825 185.951 792.631 185.066 792.576 183.295L791.829 182.714C791.275 183.433 790.916 184.208 790.75 185.038C790.528 185.868 790.224 187.639 789.837 190.351C785.52 199.371 783.224 204.6 782.947 206.039L782.283 206.371H781.951C781.563 206.371 781.397 206.177 781.453 205.79C782.061 203.023 783.528 198.181 785.852 191.264C786.184 189.548 786.461 185.896 786.682 180.307C787.125 178.093 786.544 176.129 784.939 174.413C785.991 163.954 786.101 158.725 785.271 158.725C785.271 158.835 785.077 159.223 784.69 159.887H784.109C783.39 159.665 783.224 158.088 783.611 155.155L784.773 149.843C785.326 147.297 786.018 144.53 786.848 141.542L787.18 137.392C783.639 138.775 781.065 139.467 779.461 139.467H778.88C779.101 138.581 778.464 138 776.97 137.724C772.377 140.103 766.152 141.293 758.294 141.293H757.464C755.527 144.669 754.392 147.131 754.06 148.681C753.95 149.013 753.894 150.202 753.894 152.25C749.633 157.784 746.839 162.017 745.51 164.95C740.087 168.879 737.182 171.729 736.795 173.5C735.3 177.263 733.723 179.145 732.063 179.145L732.229 178.231L732.561 175.326H731.98C727.221 182.576 724.011 187.805 722.351 191.015C721.798 191.181 720.663 192.951 718.948 196.327L718.201 196.576H717.62L717.869 195.414C717.924 195.082 720.387 189.659 725.256 179.145C727.857 173.334 729.241 169.986 729.407 169.101L729.49 168.769C729.601 168.381 729.573 167.108 729.407 164.95C732.727 158.808 734.996 154.27 736.214 151.337L736.297 150.756H735.964C735.245 151.143 734.636 151.337 734.138 151.337C734.581 149.123 736.02 146.467 738.455 143.368C738.067 143.368 737.901 143.257 737.957 143.036L737.293 143.368H735.466C732.478 141.985 730.652 141.293 729.988 141.293H727.332C726.889 141.293 726.474 141.376 726.087 141.542C725.146 141.321 724.703 141.016 724.758 140.629L724.924 140.048C725.699 140.048 726.474 139.577 727.249 138.637L727.415 137.973H724.758C722.988 137.973 719.363 137.696 713.884 137.143H709.402L709.568 136.562C709.789 135.399 714.88 134.708 724.841 134.486C729.711 133.214 732.257 132.107 732.478 131.166C732.644 130.17 735.079 129.478 739.783 129.091L741.194 127.929L741.277 127.68L740.862 126.767C740.973 126.269 743.961 125.688 749.827 125.023C751.653 122.312 752.898 120.126 753.562 118.466L753.064 116.972L753.23 116.142C753.617 114.426 757.74 108.09 765.598 97.1328C767.037 94.2552 769.887 89.7174 774.148 83.5195C774.867 79.9225 776.14 77.1833 777.966 75.3018H777.717C775.172 78.2347 773.152 79.7012 771.658 79.7012C771.547 79.3138 771.519 79.0094 771.575 78.7881C776.721 72.1475 779.571 67.6097 780.125 65.1748C780.733 62.0758 783.002 58.9215 786.931 55.7119C787.983 55.7119 789.339 54.3285 790.999 51.5615C792.603 51.5615 793.572 50.8698 793.904 49.4863C793.627 48.8776 793.544 48.2965 793.655 47.7432C793.821 46.9684 795.232 45.0869 797.888 42.0986C798.22 40.4385 799.964 39.1657 803.118 38.2803C807.49 33.6872 810.063 29.5368 810.838 25.8291C812 23.9476 814.158 21.7894 817.312 19.3545C819.138 19.9079 820.273 20.1846 820.715 20.1846C822.376 16.2555 823.676 14.291 824.617 14.291H825.198L824.866 17.2793L824.534 18.7734H825.447C828.103 12.4095 830.261 9.22754 831.922 9.22754ZM824.617 50.7314L824.368 51.8936H824.7L824.949 50.7314H824.617ZM770.247 83.8516H771.409C771.353 84.1283 771.464 84.5156 771.741 85.0137C771.132 85.8991 770.634 86.3971 770.247 86.5078H769.334C769.389 86.1758 769.278 85.7884 769.002 85.3457L769.085 84.7646C769.195 84.4326 769.583 84.1283 770.247 83.8516ZM774.397 120.209H775.31C780.18 119.932 783.611 119.158 785.603 117.885C785.658 117.553 786.406 117.359 787.844 117.304C788.01 117.304 788.066 117.387 788.01 117.553C789.062 117.442 789.698 116.861 789.92 115.81L790.169 114.647C790.445 113.209 790.473 112.13 790.252 111.41C791.912 105.434 793.461 99.0143 794.9 92.1523C795.011 91.8757 795.121 90.8796 795.232 89.1641C794.955 89.1641 794.042 90.7412 792.493 93.8955C791.386 95.2236 789.671 96.2197 787.346 96.8838L780.955 110.165C778.022 114.924 775.836 118.272 774.397 120.209ZM818.889 121.122H819.719C821.103 121.122 821.601 122.007 821.214 123.778C820.771 124.774 820.19 125.217 819.47 125.106L816.814 125.272C816.869 124.996 816.759 124.608 816.482 124.11L816.648 123.197C817.921 121.814 818.668 121.122 818.889 121.122ZM742.024 126.767L741.858 127.348H742.19L742.356 126.767H742.024ZM784.441 157.23L784.358 157.562H784.939L785.022 157.23H784.441ZM793.655 183.876L793.489 184.457H793.821L793.987 183.876H793.655ZM883.463 10.0576H885.206L885.123 11.8008C884.735 12.5202 883.961 12.8799 882.799 12.8799H882.467L882.55 11.1367L882.633 10.7217C882.799 10.279 883.075 10.0576 883.463 10.0576ZM886.617 16.3662H887.696C889.19 24.3903 889.273 31.446 887.945 37.5332L886.866 42.7627C886.036 46.5257 883.629 50.8698 879.644 55.7949H879.312L879.478 54.7988H879.146C879.091 55.0202 878.897 55.3522 878.565 55.7949H879.312C873.944 61.3841 870.652 67.0286 869.434 72.7285C869.047 74.61 867.415 76.3809 864.537 78.041C863.153 78.041 861.936 80.5036 860.885 85.4287C858.782 88.6383 857.011 92.512 855.572 97.0498C854.023 98.9867 853.054 100.979 852.667 103.026C852.999 103.026 853.331 103.497 853.663 104.438C853.165 106.706 850.592 112.794 845.943 122.699C845.888 125.466 845.722 127.458 845.445 128.676L842.54 135.731L843.287 135.399H846.441C846.165 136.562 847.022 137.253 849.014 137.475C854.216 135.15 859.197 133.988 863.956 133.988H868.106C868.936 133.988 871.178 134.929 874.83 136.811H875.494C880.585 136.811 883.352 135.759 883.795 133.656L885.621 133.324C892.538 133.324 896.384 134.265 897.159 136.146C896.938 137.032 898.21 137.475 900.977 137.475H903.385C904.602 137.475 905.321 137.945 905.543 138.886L905.46 139.301C905.349 139.799 904.325 140.269 902.388 140.712C902.167 141.874 906.899 143.977 916.583 147.021C918.852 147.187 919.903 147.657 919.737 148.432V148.764C919.516 148.764 919.128 148.874 918.575 149.096C915.199 149.096 910.081 148.293 903.219 146.688H902.471C902.361 147.131 902.084 147.353 901.641 147.353H897.823L894.835 150.175H891.348C890.906 150.175 888.831 150.645 885.123 151.586L885.04 151.918L885.621 152.997L885.372 154.076C873.363 154.796 866.114 155.155 863.624 155.155C862.296 157.479 858.948 158.642 853.58 158.642C845.445 158.642 840.52 159.582 838.805 161.464C836.425 161.685 834.128 162.156 831.915 162.875H831.583L829.176 162.543C827.515 164.148 825.274 164.95 822.452 164.95H821.788C820.46 164.95 818.855 164.369 816.973 163.207C816.42 165.587 815.341 166.776 813.736 166.776C812.297 166.776 811.716 165.836 811.993 163.954C812.104 163.235 812.657 162.294 813.653 161.132C812.38 159.693 810.997 158.974 809.503 158.974C807.732 161.021 806.653 162.322 806.265 162.875H805.601C805.159 162.875 804.993 162.626 805.103 162.128C805.269 161.464 805.823 160.523 806.763 159.306H806.431C805.491 160.523 804.439 161.132 803.277 161.132L803.526 160.053C805.574 156.788 806.68 154.796 806.846 154.076C807.455 151.199 808.202 149.206 809.088 148.1C807.483 147.214 806.819 146.024 807.096 144.53C809.032 144.198 810.084 143.617 810.25 142.787C806.099 141.016 803.554 139.384 802.613 137.89L802.862 136.811H804.937C808.092 137.973 810.388 138.554 811.827 138.554H812.906C813.57 138.111 814.76 136.229 816.475 132.909C819.132 131.304 820.875 128.62 821.705 124.857H821.373L820.128 125.521H819.464L819.713 124.525C820.1 122.589 822.48 117.304 826.851 108.671C827.128 107.398 828.982 103.524 832.413 97.0498C832.468 96.8285 832.136 96.109 831.417 94.8916L831.666 93.8955C833.105 90.4645 835.872 85.6501 839.967 79.4521C840.188 78.5114 842.512 74.029 846.939 66.0049L847.52 61.8545C849.679 59.1982 851.09 56.376 851.754 53.3877C852.805 53.3877 853.94 50.7868 855.157 45.585C857.26 41.3792 859.307 39.2764 861.3 39.2764C863.181 37.8929 864.952 37.2012 866.612 37.2012C866.999 35.4857 870.043 33.0231 875.743 29.8135C878.067 29.8135 879.312 29.4538 879.478 28.7344C879.534 28.4023 880.032 27.1019 880.972 24.833H881.305L883.961 26.9912L885.04 23.7539L884.874 21.3467L885.787 17.1133C885.953 16.6152 886.23 16.3662 886.617 16.3662ZM874.996 18.8564H875.328C876.933 18.8564 877.569 19.6865 877.237 21.3467L876.822 23.0898C876.49 23.8092 875.743 24.1689 874.581 24.1689H873.917C873.031 23.6709 872.478 22.9515 872.257 22.0107L872.672 19.9355C873.17 19.9355 873.944 19.5758 874.996 18.8564ZM904.215 138.554L904.049 139.301H904.464L904.63 138.554H904.215ZM799.376 146.688C801.479 146.688 802.336 147.629 801.949 149.511L801.7 150.507C799.708 151.448 798.435 151.918 797.882 151.918C796.609 151.475 796.083 150.784 796.305 149.843C796.747 147.74 797.771 146.688 799.376 146.688ZM801.783 166.029H802.862C803.028 166.029 803.305 166.389 803.692 167.108C802.973 168.16 802.392 168.741 801.949 168.852H801.202C800.649 168.852 800.427 168.381 800.538 167.44C801.036 166.5 801.451 166.029 801.783 166.029ZM952.519 26.4932H954.843V27.8213C954.455 28.7067 953.598 29.1494 952.27 29.1494L951.938 27.4893C952.27 27.0465 952.463 26.7145 952.519 26.4932ZM930.771 30.1455C932.486 30.1455 934.727 31.0309 937.494 32.8018C940.261 33.0231 941.921 33.1338 942.475 33.1338L950.692 31.8057H951.688C951.467 32.8018 951.965 33.5765 953.183 34.1299C955.673 33.0231 959.989 32.4697 966.132 32.4697H967.792C971.112 32.4697 973.243 33.4658 974.184 35.458C974.958 35.9007 975.678 36.1221 976.342 36.1221C980.271 36.1221 983.148 35.126 984.975 33.1338C985.417 33.1338 985.639 33.0231 985.639 32.8018C991.892 32.8018 995.738 34.0192 997.177 36.4541C997.121 36.8415 999.695 37.2842 1004.9 37.7822L1005.06 38.4463L1004.98 38.7783C1004.87 39.3317 1003.87 39.8851 1001.99 40.4385L1001.91 40.7705C1001.8 41.2686 1005.15 42.154 1011.95 43.4268C1013.67 44.2568 1016.66 44.8102 1020.92 45.0869L1021.33 46.083C1019.62 46.7471 1017.68 47.0791 1015.52 47.0791L1004.73 46.083C999.75 46.083 996.568 47.0791 995.185 49.0713C995.129 49.2926 994.991 49.4033 994.77 49.4033H990.121C987.077 50.2887 985.445 50.7314 985.224 50.7314L985.141 52.3916L985.058 52.7236C984.892 52.7236 984.006 52.8343 982.401 53.0557C972.883 52.8343 967.017 52.7236 964.804 52.7236C963.199 53.111 962.286 53.7751 962.064 54.7158H961.068C959.187 54.7158 956.226 54.6051 952.187 54.3838L951.356 56.708C951.688 58.2575 951.827 59.1429 951.771 59.3643C948.34 68.4398 945.463 73.7523 943.139 75.3018C939.929 78.7327 937.909 82.4958 937.079 86.5908L935.087 92.8994C936.636 95.3343 939.459 96.5518 943.554 96.5518C945.601 96.5518 947.455 95.6663 949.115 93.8955H950.111C951.495 93.8955 953.183 94.2275 955.175 94.8916L957.25 94.5596H958.246C959.519 97.2158 962.562 98.5439 967.377 98.5439L967.543 99.208L967.377 100.204C966.436 100.204 965.661 100.757 965.053 101.864C970.974 103.414 977.255 104.521 983.896 105.185L984.062 105.849C983.951 106.457 982.761 106.9 980.492 107.177C978.5 107.177 974.267 106.845 967.792 106.181C967.073 106.181 966.104 106.513 964.887 107.177H961.898C960.958 107.177 959.685 107.951 958.08 109.501H954.76C953.708 109.501 951.771 109.833 948.949 110.497L948.866 110.829L949.281 111.825L949.198 112.157C949.143 112.6 948.894 112.821 948.451 112.821C940.15 112.6 935.059 112.489 933.178 112.489C932.458 114.039 930.632 114.813 927.699 114.813C927.644 115.09 925.209 116.197 920.395 118.134L914.335 127.763C912.841 129.257 911.042 130.474 908.939 131.415C906.892 134.846 905.674 137.392 905.287 139.052L905.121 140.048L906.698 140.38H908.358C911.679 138.388 915.442 137.392 919.647 137.392C921.142 138.664 921.861 139.439 921.806 139.716C933.482 137.06 939.846 135.731 940.897 135.731H941.562C943.941 135.731 945.795 135.842 947.123 136.063C948.783 135.842 950.803 135.731 953.183 135.731H954.843C955.894 135.731 957.997 136.728 961.151 138.72H962.147C967.46 138.72 971.721 137.502 974.931 135.067H975.595C984.836 135.067 989.817 136.063 990.536 138.056C990.37 138.941 993.773 139.605 1000.75 140.048L1000.91 140.712L1000.83 141.044L997.841 142.704L997.343 143.368L997.924 143.7C1000.69 143.7 1006.39 144.586 1015.02 146.356C1018.12 146.356 1019.59 146.688 1019.42 147.353L1019.34 147.685C1019.23 148.349 1017.74 148.681 1014.86 148.681H1005.89C1004.12 148.681 1001.83 148.57 999.003 148.349C998.173 148.791 997.453 149.013 996.845 149.013H993.856C992.03 149.013 990.425 149.787 989.042 151.337C988.212 151.78 987.493 152.001 986.884 152.001C984.172 151.78 982.761 151.669 982.65 151.669C979.33 152.333 977.117 152.886 976.01 153.329C976.286 154.049 976.369 154.713 976.259 155.321L973.104 155.985C971.666 155.985 969.812 155.875 967.543 155.653C953.21 156.428 945.989 157.092 945.878 157.646C945.657 158.531 945.325 158.974 944.882 158.974L921.64 160.634C915.276 161.464 911.983 162.349 911.762 163.29C911.319 163.622 909.05 163.954 904.955 164.286C904.291 164.95 903.433 165.282 902.382 165.282H902.05C901.275 165.282 900.307 165.172 899.145 164.95C893.998 167.385 889.322 168.603 885.116 168.603C885.393 167.274 884.757 166.61 883.207 166.61C882.875 168.104 879.333 172.753 872.582 180.556C870.701 183.876 869.455 185.536 868.847 185.536H868.183L868.266 185.204C868.874 182.271 871.752 177.069 876.898 169.599C878.171 166.721 878.918 164.84 879.14 163.954C871.614 161.851 868.017 159.97 868.349 158.31L868.93 155.653L869.594 153.993C866.052 153.108 864.364 152.222 864.53 151.337C866.799 150.119 867.961 149.345 868.017 149.013L868.1 148.681C866.384 148.072 863.313 147.408 858.886 146.688L858.388 145.692L858.554 145.028C860.657 144.586 862.621 144.254 864.447 144.032C865.554 144.254 866.19 144.364 866.356 144.364C871.005 144.364 877.535 142.815 885.946 139.716C886.057 139.052 887.994 135.621 891.757 129.423C892.753 126.988 895.077 122.782 898.729 116.806L898.812 116.474C898.923 116.086 898.812 115.09 898.48 113.485C898.591 113.043 899.145 111.936 900.141 110.165C899.2 110.165 898.453 107.951 897.899 103.524H896.239C895.907 103.524 895.658 103.192 895.492 102.528L895.658 101.532C896.544 101.532 897.152 100.868 897.484 99.54C895.16 99.0973 892.642 98.876 889.931 98.876H889.267C888.824 98.876 888.658 98.6546 888.769 98.2119L888.852 97.8799C889.018 97.1051 891.452 96.5518 896.156 96.2197C901.081 94.8363 903.599 93.9508 903.71 93.5635C902.88 93.3421 902.576 92.6781 902.797 91.5713L905.204 91.2393C907.086 91.682 908.469 91.9033 909.354 91.9033C911.125 91.9033 912.979 87.3656 914.916 78.29C917.904 73.4756 919.62 70.0446 920.062 67.9971L921.059 63.3486C921.446 61.5778 922.968 59.6963 925.624 57.7041C922.248 55.4352 920.09 53.5537 919.149 52.0596C919.149 51.7275 917.296 50.5101 913.588 48.4072C913.145 47.5771 912.979 46.8024 913.09 46.083L913.505 44.4229L914.335 42.0986C913.007 42.0986 911.955 41.3239 911.181 39.7744L911.264 39.1104C913.145 38.723 914.141 38.2803 914.252 37.7822C913.422 36.8968 910.627 36.0114 905.868 35.126L905.785 33.7979C906.726 33.3551 907.667 33.1338 908.607 33.1338H918.236C925.762 31.1416 929.94 30.1455 930.771 30.1455ZM899.228 35.126H900.556C901.164 35.3473 901.33 36.0114 901.054 37.1182V37.4502L899.228 38.1143C898.397 37.8929 898.093 37.2288 898.314 36.1221C898.757 36.1221 899.062 35.79 899.228 35.126ZM905.121 43.0947C907.556 43.0947 908.58 43.9801 908.192 45.751C906.864 47.3005 905.481 48.0752 904.042 48.0752C903.046 47.7432 902.659 46.9684 902.88 45.751L903.212 44.4229C903.267 44.0908 903.904 43.6481 905.121 43.0947ZM945.463 70.3213L945.38 70.9854C945.823 70.9854 946.072 70.764 946.127 70.3213H945.463ZM895.99 92.2354H897.65L897.982 93.8955C897.595 94.7809 896.848 95.2236 895.741 95.2236L894.994 93.8955L895.077 93.5635C895.631 93.0101 895.935 92.5674 895.99 92.2354ZM883.456 99.8721C884.231 100.204 884.59 100.536 884.535 100.868L884.203 102.528C883.373 102.75 882.903 102.86 882.792 102.86C881.962 102.528 881.602 102.196 881.713 101.864L881.879 100.868C881.99 100.315 882.515 99.9827 883.456 99.8721ZM891.342 106.513C892.891 106.513 893.528 107.177 893.251 108.505L893.085 109.169C892.255 110.497 891.231 111.161 890.014 111.161H888.686C888.298 111.161 887.994 110.497 887.772 109.169C888.547 107.398 889.737 106.513 891.342 106.513ZM851.498 147.021H852.826C853.435 147.242 853.629 147.906 853.407 149.013L853.241 149.677L851.498 150.009H851.166C850.834 150.009 850.613 149.566 850.502 148.681C851.055 147.961 851.387 147.408 851.498 147.021ZM858.056 155.321H859.052C861.265 155.321 862.234 155.985 861.957 157.313C860.518 159.527 859.052 160.634 857.558 160.634C856.396 160.634 855.842 159.638 855.897 157.646C856.506 156.317 857.226 155.543 858.056 155.321Z" fill="white"/>
</svg>
